<svg id="Group_3" data-name="Group 3" xmlns="http://www.w3.org/2000/svg" xmlns:xlink="http://www.w3.org/1999/xlink" width="933.14" height="496.594" viewBox="0 0 933.14 496.594">
  <defs>
    <linearGradient id="linear-gradient" x1="0.5" y1="1" x2="0.5" y2="-0.001" gradientUnits="objectBoundingBox">
      <stop offset="0" stop-color="gray" stop-opacity="0.251"/>
      <stop offset="0.54" stop-color="gray" stop-opacity="0.122"/>
      <stop offset="1" stop-color="gray" stop-opacity="0.102"/>
    </linearGradient>
  </defs>
  <path id="Path_1" data-name="Path 1" d="M940.972,565.616q-1.559,3.361-3.11,6.632-2.42,5.081-4.776,9.965c-.7,1.443-1.4,2.859-2.079,4.275-7.707,15.745-14.9,29.672-21.015,41.124a65.607,65.607,0,0,1-57.183,34.681l-135.9,1.479h-1.434l-11.65.125-9.965.108-30.559.332h-1.237l-15.557.17h-.475l-95.888,1.039-85.591.9-9.956.107-61.834.672h-.072l-40.1.43h-.43l-126.805,1.371-37.934.412a78.92,78.92,0,0,1-23.9-3.423,77.418,77.418,0,0,1-35.031-22.18c-16.292-17.95-28.166-38.893-36.142-61.619q-1.73-4.92-3.226-9.965c-27.61-93.334,6.049-213.75,66.629-294.332q3.809-5.054,7.743-9.858l.063-.072c18.631-22.87,39.52-41.976,61.772-55.561,39.431-24.115,83.118-30.908,126.088-10.664,36.357,17.134,70.3,25.191,103.21,27.377,3.325.215,6.649.376,9.956.475,75.483,2.375,146.225-24.823,229.3-42.379,3.307-.7,6.623-1.389,9.965-2.043,59.262-11.793,125-18.013,203.184-4.938a169.449,169.449,0,0,1,23.981,5.735q5.171,1.667,9.965,3.585c37.316,15.181,57.667,43.23,66.315,78.377q1.228,4.893,2.124,9.956C1024.744,362.449,979.838,482.372,940.972,565.616Z" transform="translate(-79.351 -172.945)" fill="#696969" opacity="0.1"/>
  <g id="Group_1" data-name="Group 1" transform="translate(9.767 12.219)" opacity="0.1">
    <path id="Path_2" data-name="Path 2" d="M235.074,217V673.7l-37.934.412a78.928,78.928,0,0,1-23.9-3.423V272.561h.063C191.934,249.665,212.823,230.559,235.074,217Z" transform="translate(-98.868 -189.739)" fill="#696969"/>
    <path id="Path_3" data-name="Path 3" d="M1018.309,288.929H164.6q3.809-5.054,7.743-9.858V279h843.842Q1017.412,283.866,1018.309,288.929Z" transform="translate(-97.971 -196.178)" fill="#696969"/>
    <path id="Path_4" data-name="Path 4" d="M1039.665,191.09V573.747h-3.11q-2.42,5.081-4.776,9.965c-.7,1.443-1.4,2.859-2.079,4.275V187.47Q1034.871,189.137,1039.665,191.09Z" transform="translate(-187.811 -186.672)" fill="#696969"/>
    <path id="Path_5" data-name="Path 5" d="M775.055,186.58V665.348l-9.965.108V188.623C768.4,187.924,771.713,187.234,775.055,186.58Z" transform="translate(-160.332 -186.58)" fill="#696969"/>
    <path id="Path_6" data-name="Path 6" d="M508.066,236.095V673.04l-9.956.108V235.62C501.435,235.835,504.759,235.961,508.066,236.095Z" transform="translate(-132.606 -191.673)" fill="#696969"/>
    <path id="Path_7" data-name="Path 7" d="M938.994,618.52q-2.419,5.081-4.776,9.965H93.476q-1.73-4.92-3.226-9.965Z" transform="translate(-90.25 -231.437)" fill="#696969"/>
  </g>
  <rect id="Rectangle_1" data-name="Rectangle 1" width="17.027" height="51.672" transform="translate(189.616 238.192)" fill="#3f3d56"/>
  <rect id="Rectangle_2" data-name="Rectangle 2" width="17.027" height="54.665" transform="translate(647.844 235.504)" fill="#3f3d56"/>
  <path id="Path_8" data-name="Path 8" d="M784.486,530.69v11.65l-136.143,1.255-1.452.027-51.744.475-1.237.018-15.727.134h-.466l-95.87.887L324.474,546.6h-.134l-40.013.376-.43.009-177.8,1.631V535.171l41.805-25.092,83.88-.7,1.792-.009.591-.009,1.792-.027L276.234,509l1.8-.009.574-.009,1.792-.009,12.914-.108.341-.009,31.858-.269h.26l248.592-2.1,6.085-.045h.609l4.642-.045,33.74-.278,1.792-.027,1.658-.018h.86L634.246,506l2.079-.027,2.787-.018,8.737-.081,13.863-.116,1.792-.018,3.119-.018h.582l66.951-.574Z" transform="translate(-11.028 -52.491)" fill="#65617d"/>
  <path id="Path_9" data-name="Path 9" d="M784.486,530.69v11.65l-136.143,1.255-1.452.027-51.744.475-1.237.018-15.727.134h-.466l-95.87.887L324.474,546.6h-.134l-40.013.376-.43.009-177.8,1.631V535.171l41.805-25.092,83.88-.7,1.792-.009.591-.009,1.792-.027L276.234,509l1.8-.009.574-.009,1.792-.009,12.914-.108.341-.009,31.858-.269h.26l248.592-2.1,6.085-.045h.609l4.642-.045,33.74-.278,1.792-.027,1.658-.018h.86L634.246,506l2.079-.027,2.787-.018,8.737-.081,13.863-.116,1.792-.018,3.119-.018h.582l66.951-.574Z" transform="translate(-11.028 -52.491)" opacity="0.2"/>
  <path id="Path_10" data-name="Path 10" d="M370.541,656.57v21.947a5.493,5.493,0,0,1-3.137,4.965,5.378,5.378,0,0,1-2.24.538l-31.276.663a5.377,5.377,0,0,1-2.42-.511,5.484,5.484,0,0,1-3.2-4.992V656.57Z" transform="translate(-105.201 -223.169)" fill="#3f3d56"/>
  <path id="Path_11" data-name="Path 11" d="M370.541,656.57v21.947a5.493,5.493,0,0,1-3.137,4.965,5.378,5.378,0,0,1-2.24.538l-31.276.663a5.377,5.377,0,0,1-2.42-.511,5.484,5.484,0,0,1-3.2-4.992V656.57Z" transform="translate(-105.201 -223.169)" opacity="0.1"/>
  <path id="Path_12" data-name="Path 12" d="M372.541,656.57v21.947a5.493,5.493,0,0,1-3.137,4.965,5.377,5.377,0,0,1-2.24.538l-31.276.663a5.377,5.377,0,0,1-2.42-.511,5.484,5.484,0,0,1-3.2-4.992V656.57Z" transform="translate(-105.409 -223.169)" fill="#3f3d56"/>
  <rect id="Rectangle_3" data-name="Rectangle 3" width="42.271" height="28.229" transform="translate(610.206 433.401)" fill="#3f3d56"/>
  <rect id="Rectangle_4" data-name="Rectangle 4" width="42.271" height="28.229" transform="translate(610.206 433.401)" opacity="0.1"/>
  <rect id="Rectangle_5" data-name="Rectangle 5" width="42.271" height="28.229" transform="translate(608.414 433.401)" fill="#3f3d56"/>
  <path id="Path_13" data-name="Path 13" d="M228.627,265.82v5.135l-17.027-.439v-4.7Z" transform="translate(-21.984 -27.637)" opacity="0.1"/>
  <path id="Path_14" data-name="Path 14" d="M412.4,275.512,391.936,422.481a3.853,3.853,0,0,1-3.916,3.325L224.2,421.558l-3.11-.081a3.853,3.853,0,0,1-3.728-4.364l22.968-153.851a3.853,3.853,0,0,1,4.069-3.253l164.408,11.13a3.845,3.845,0,0,1,3.585,4.373Z" transform="translate(-93.68 -181.986)" fill="#65617d"/>
  <path id="Path_15" data-name="Path 15" d="M173.923,99.16,156.6,234.774l150.553,4.776,18.515-130.838Z" transform="translate(-16.272 -10.329)" fill="#3b3b3b"/>
  <rect id="Rectangle_6" data-name="Rectangle 6" width="183.415" height="155.33" rx="5.33" transform="translate(344.65 86.734)" fill="#65617d"/>
  <rect id="Rectangle_7" data-name="Rectangle 7" width="166.684" height="129.341" transform="translate(353.307 97.192)" fill="#3b3b3b"/>
  <path id="Path_16" data-name="Path 16" d="M739.957,262.82v3.4l-17.027.35V262.82Z" transform="translate(-75.086 -27.325)" opacity="0.1"/>
  <path id="Path_17" data-name="Path 17" d="M885.25,414.29a2.76,2.76,0,0,1-2.688,2.939L714.8,420.7a2.76,2.76,0,0,1-2.8-2.5L697.579,268.29a2.76,2.76,0,0,1,2.617-3.02l166.487-8.28,1.792-.09a2.751,2.751,0,0,1,2.886,2.509Z" transform="translate(-143.552 -181.663)" fill="#65617d"/>
  <path id="Path_18" data-name="Path 18" d="M628.93,102.294,780.98,94.82l12.842,136.215-150.849,3.585Z" transform="translate(-65.324 -9.878)" fill="#3b3b3b"/>
  <path id="Path_19" data-name="Path 19" d="M904.848,414.29a2.76,2.76,0,0,1-2.688,2.939L886.28,256.989l1.792-.09a2.751,2.751,0,0,1,2.886,2.509Z" transform="translate(-163.15 -181.663)" opacity="0.1"/>
  <path id="Path_20" data-name="Path 20" d="M244.43,260,224.2,421.557l-3.11-.081a3.853,3.853,0,0,1-3.728-4.364l22.968-153.851A3.853,3.853,0,0,1,244.43,260Z" transform="translate(-93.68 -181.984)" opacity="0.1"/>
  <rect id="Rectangle_8" data-name="Rectangle 8" width="17.027" height="15.306" transform="translate(189.616 274.558)" opacity="0.1"/>
  <path id="Path_21" data-name="Path 21" d="M293.2,483.65V488.1l-42.271,1.129V483.65Z" transform="translate(-26.069 -50.258)" opacity="0.1"/>
  <path id="Path_22" data-name="Path 22" d="M439.972,484.86V635.592a3.585,3.585,0,0,1-3.45,3.54L264.775,643.7h-.045a3.585,3.585,0,0,1-3.54-3.54V484.86a3.585,3.585,0,0,1,3.54-3.54h171.7A3.585,3.585,0,0,1,439.972,484.86Z" transform="translate(-98.235 -204.97)" fill="#65617d"/>
  <path id="Path_23" data-name="Path 23" d="M264.775,481.32V643.7h-.045a3.585,3.585,0,0,1-3.54-3.54V484.86a3.585,3.585,0,0,1,3.54-3.54Z" transform="translate(-98.235 -204.97)" opacity="0.1"/>
  <path id="Path_24" data-name="Path 24" d="M194.6,319.15H353.667V452L194.6,455.589Z" transform="translate(-20.219 -33.175)" fill="#d4dfec"/>
  <rect id="Rectangle_9" data-name="Rectangle 9" width="17.027" height="15.611" transform="translate(647.844 274.558)" opacity="0.1"/>
  <path id="Path_25" data-name="Path 25" d="M721.2,483.65v5.744l-42.271-1.129V483.65Z" transform="translate(-70.516 -50.258)" opacity="0.1"/>
  <path id="Path_26" data-name="Path 26" d="M846.968,484.86v155.3a3.585,3.585,0,0,1-3.585,3.54h0L671.6,639.132a3.585,3.585,0,0,1-3.45-3.54V484.86a3.585,3.585,0,0,1,3.54-3.54h171.7a3.585,3.585,0,0,1,3.576,3.54Z" transform="translate(-140.497 -204.97)" fill="#65617d"/>
  <path id="Path_27" data-name="Path 27" d="M867.275,484.86v155.3a3.585,3.585,0,0,1-3.585,3.54h0V481.32h0a3.585,3.585,0,0,1,3.585,3.54Z" transform="translate(-160.804 -204.97)" opacity="0.1"/>
  <path id="Path_28" data-name="Path 28" d="M757.167,319.15H598.1V452l159.067,3.585Z" transform="translate(-62.122 -33.175)" fill="#d4dfec"/>
  <path id="Path_29" data-name="Path 29" d="M642.472,484.86V635.592a3.585,3.585,0,0,1-3.45,3.54L467.275,643.7h0a3.585,3.585,0,0,1-3.585-3.54V484.86a3.585,3.585,0,0,1,3.54-3.54h171.7A3.585,3.585,0,0,1,642.472,484.86Z" transform="translate(-119.264 -204.97)" fill="#65617d"/>
  <path id="Path_30" data-name="Path 30" d="M397.1,319.15H556.167V452L397.1,455.589Z" transform="translate(-41.248 -33.175)" fill="#d4dfec"/>
  <path id="Path_31" data-name="Path 31" d="M784.486,533.65V545.3l-136.143,1.255-1.452.027-51.744.475-1.237.018-15.727.134h-.466l-95.87.887-157.373,1.461h-.134l-40.013.376-.43.009-177.8,1.631V538.131l181.479-1.192h.43l36.733-.251h.17L578.6,535.012h.26l.152-.009h.421l4.293-.027h1.308l66.754-.448,3.943-.018.878-.009Z" transform="translate(-11.028 -55.451)" opacity="0.1"/>
  <ellipse id="Ellipse_1" data-name="Ellipse 1" cx="45.999" cy="45.999" rx="45.999" ry="45.999" transform="translate(390.649 197.866)" fill="#fbbebe"/>
  <path id="Path_32" data-name="Path 32" d="M383.74,685.928a1.113,1.113,0,0,1,.09-.314c.9-3.217,2.491-8.657,3.683-13,.152-.538.3-1.066.43-1.568,1.317-4.9,3.88-16.382,5.305-23.542.5-2.518.9-4.481.977-5.466.179-1.514,2.877-7.994,5.932-15.441,2.142-5.234,4.481-10.951,6.192-15.772a55,55,0,0,0,2.626-8.827,4.57,4.57,0,0,0,0-1.909,13.163,13.163,0,0,1-.43-3.137h0c-.206-5.556,1.452-14.338,4.015-18.022,3.137-4.481,5.377-21.2,5.377-21.2s4.642.672,5.377-3.163a5.513,5.513,0,0,0,.09-1.255,6.635,6.635,0,0,0-.081-.995c-.8-5.592,13.191-11.542,21.06-12.824a17.615,17.615,0,0,1,2.688-.251,24.415,24.415,0,0,0,5.6-1.29q1.255-.385,2.688-.9c3.3-1.111,7.241-2.581,11.426-4.194,15.736-6.1,34.789-14.339,34.789-14.339.134-.636.287-1.246.457-1.846a24.832,24.832,0,0,1,14.652-16.964h0v-1.792c0-3.092-.134-6.273-.269-9.445,0-.618-.054-1.237-.09-1.855V485.6c0-.627-.063-1.255-.1-1.873l-.161-.125a14.705,14.705,0,0,1-3.495-3.764,13.682,13.682,0,0,1-1.273-2.688c-1.12-3.038-1.38-6.425-2.133-9.634l-.161-.663a75.267,75.267,0,0,0-3.585-9.481c-1.981-4.857-3.5-9.858-5.018-14.921q-1.38-4.6-2.787-9.212l-1.416-4.7c-.269-.9-.538-1.792-.744-2.688h0a11.892,11.892,0,0,1-.233-1.255,8.962,8.962,0,0,1,.215-4.131,28.777,28.777,0,0,1,1.183-2.688,7.053,7.053,0,0,0,.448-1.237h0a2.679,2.679,0,0,0,.072-.287,5.062,5.062,0,0,0,.1-.968,16.545,16.545,0,0,0-.466-3.486.062.062,0,0,1,0-.045,2.3,2.3,0,0,0-.045-.242,22.841,22.841,0,0,1-.323-2.688,25.5,25.5,0,0,1,3.11-13.953l.17-.323a22.594,22.594,0,0,1,1.649-2.491h0a12.6,12.6,0,0,1,.9-1.093c-1.255,1.2-3.316.672-4.481-.618a3.234,3.234,0,0,1-.493-.672,3.416,3.416,0,0,1-.206-.4c-.045-.108-.081-.224-.117-.341-.627-2.2.466-4.535,1.9-6.318a16.567,16.567,0,0,1,5.144-4.212h0a3.452,3.452,0,0,1,.359-.188,15.34,15.34,0,0,1,2.366-.95h0a13.491,13.491,0,0,1,1.461-.394l-3.325-.3-1.344-.125a12.985,12.985,0,0,1,11.65-9.777h.968a10.518,10.518,0,0,1,1.407.116,3.979,3.979,0,0,1-2.375-3.88,12.914,12.914,0,0,0,8.236,2.742h.341a26.9,26.9,0,0,1-.3-2.93h0a29.729,29.729,0,0,1,0-4,7.564,7.564,0,0,0,6.076,2.025l-1.864-2.6a8.5,8.5,0,0,0,5.879,1.837l.43-.045a6.276,6.276,0,0,0,1.067-.206h.081c-.17-.215-.323-.439-.475-.672l-.054-.108a8.662,8.662,0,0,1-.9-1.873,5.882,5.882,0,0,1-.215-.78h0a7.841,7.841,0,0,1,.4-4.884c2.894,2.42,6.067,5.726,9.858,3.226s3.916-7.089,9.858-6.623A9.141,9.141,0,0,1,561.1,353.5a6.049,6.049,0,0,1,6.873-1.568,6.138,6.138,0,0,1,3.477,6.174c2.464-.618,5.117-1.228,7.483-.3s3.889,3.952,2.545,5.968a1.281,1.281,0,0,1-.125.179c-1.1,1.425-3.54,2.2-3.28,4l.376.269,1.165.842q6.856,4.947,13.353,10.4c2.222,1.864,4.588,4.1,4.741,7.017a7.746,7.746,0,0,1-.215,2.124h0c-.143.7-.341,1.4-.493,2.1a17.485,17.485,0,0,0-.3,5.422h0c.063.529.143,1.048.242,1.577,1.371,6.927,6.909,12.645,7.456,19.715v.5a15.924,15.924,0,0,1-.063,2.267c-.412,4.3-2.4,8.433-4.015,12.546-.1.251-.2.5-.287.753a124.843,124.843,0,0,0-6.273,25.236,89.828,89.828,0,0,1-1.792,9.042,23.954,23.954,0,0,1-4.561,9.347,14.536,14.536,0,0,1-3.011,2.688,16.73,16.73,0,0,1-2.375,1.264v.054c.1.547.179,1.093.278,1.64.054.287.1.574.152.9h0a.123.123,0,0,0,0,.054c.753,4.239,1.613,8.388,2.518,12.331l.457,1.963c11.291,4.077,12.627,12.43,12.707,15.629a8.635,8.635,0,0,1,0,1.281s17.027.448,23.748,5.377a18.222,18.222,0,0,0,4.042,2.061,74.361,74.361,0,0,0,8.289,2.59c1.443.376,2.948.744,4.481,1.1,2.688.618,5.538,1.219,8.289,1.792,7.339,1.479,14.249,2.688,17.753,3.585,8.361,2.115,27.485,20.45,27.485,20.45s2.24,18.5,4.481,21.194,6.273,12.179,6.273,12.179l14.822,26.356,6.273,11.085h4.033c.556,0,1.649.789,2.877,1.882,1.066.95,2.249,2.133,3.289,3.208l1.721,1.837,1.075,1.192s6.515.161,8.28,5.314c5.305-.152,11.82.2,16.382,2.24a12.679,12.679,0,0,1,1.792.968,7.779,7.779,0,0,1,3.7,5.072,7.489,7.489,0,0,1,.161,1.29c0,.511,0,1.022,0,1.523-.323,6.784-4.741,12.43-8.8,16.229l.287.511s-.134.323-.394.9c-.072.17-.161.359-.26.574h0c-.529,1.129-1.371,2.823-2.473,4.8a56.737,56.737,0,0,1-8.576,11.8l-.26.269-51.744.475-.152-.179-10.037-11.973-4.992-5.95-.152-.188-.143,1.425-.484,4.75-1.165,11.48-.063.574v.152l-.135,1.326.1-1.326h-.26l-95.888.9L424.4,685.488v.753h-.125v-.753l-40.1.43Z" transform="translate(-110.961 -191.123)" fill="url(#linear-gradient)"/>
  <path id="Path_33" data-name="Path 33" d="M608.527,538.644s-89.167,10.754-80.654,0c3.083-3.889,3.934-15.414,3.764-28.542-.054-3.988-.2-8.119-.4-12.232-.986-19.715-3.361-38.983-3.361-38.983s77.965-36.742,69-7.617c-3.585,11.766-2.411,28.291.314,43.8.8,4.526,1.721,8.962,2.688,13.173a308.885,308.885,0,0,0,8.648,30.4Z" transform="translate(-125.87 -200.683)" fill="#fbbebe"/>
  <path id="Path_34" data-name="Path 34" d="M608.527,546.3s-89.167,10.754-80.654,0c3.083-3.889,3.934-15.414,3.764-28.542,13.595-5.807,30.89-1.479,30.89-1.479,18.21-3.629,29.887-2.922,37.352-.376a308.892,308.892,0,0,0,8.648,30.4Z" transform="translate(-125.87 -208.34)" opacity="0.1"/>
  <path id="Path_35" data-name="Path 35" d="M424.416,703.663v-.753L581.8,701.2l95.888-.9h.269l-.1,1.326.135-1.326h.17v-.152l1.228-12.053.466-4.561L680,682.11l.125-1.192,5.538-18.47,5.538-18.443,4.66-15.53,7.115-23.73s-4.033-9.41-6.273-12.1-4.481-21.06-4.481-21.06-19.124-18.219-27.485-20.316c-3.5-.9-10.422-2.088-17.771-3.585-2.751-.556-5.574-1.147-8.289-1.792-1.532-.349-3.038-.717-4.481-1.084a78.779,78.779,0,0,1-8.289-2.563,18.548,18.548,0,0,1-4.033-2.052c-6.587-4.83-23.094-5.377-23.73-5.377h0a.371.371,0,0,1,0-.063v-.081a9.182,9.182,0,0,0,0-1.129,7.2,7.2,0,0,0-.081-1.255,1.132,1.132,0,0,0-.063-.448c-.045-.323-.1-.663-.179-1.022a4.469,4.469,0,0,0-.108-.475,15.429,15.429,0,0,0-1.12-3.128c-.063-.143-.143-.3-.215-.439a16.361,16.361,0,0,0-1.524-2.357c-.116-.152-.242-.314-.376-.466a17.542,17.542,0,0,0-2.438-2.366c-.242-.188-.493-.385-.753-.565a4.186,4.186,0,0,0-.457-.323l-.8-.52-.744-.43c-.654-.358-1.344-.708-2.1-1.039-.233-.108-.484-.206-.735-.3s-.645-.251-.977-.376h-.054l-.672-.269c-.511-.17-1.031-.323-1.577-.475l-.833-.215-.9-.206-.9-.188c-.9-.179-1.855-.341-2.859-.466l-1.022-.125-1.048-.108-1.084-.09L573,515.8l-1.792-.063a111.755,111.755,0,0,0-23.525,2.5,64.761,64.761,0,0,0-16.353-1.508h-.78l-.9.054h-.574l-1.156.108a8.6,8.6,0,0,0-1.165.134c-.385.054-.789.1-1.174.161l-.591.1c-.583.1-1.174.206-1.792.332q-.3.054-.591.134c-.78.17-1.559.376-2.33.609-.385.108-.771.233-1.156.367-.2.054-.385.125-.573.2l-.574.206-.565.224-.672.269c-.34.143-.672.3-1,.457-.188.081-.376.17-.556.269s-.367.179-.538.278a24.87,24.87,0,0,0-5.565,3.925l-.457.439-.448.457c-.152.152-.3.314-.439.475a21.339,21.339,0,0,0-1.631,2.016c-.143.188-.278.376-.412.574a23.913,23.913,0,0,0-1.541,2.617c-.116.215-.224.439-.332.654a29.305,29.305,0,0,0-1.792,4.7q-.251.9-.457,1.792s-18.972,8.37-34.708,14.428c-4.185,1.613-8.128,3.074-11.426,4.176-.959.323-1.855.618-2.688.9a23.933,23.933,0,0,1-5.6,1.29,17.637,17.637,0,0,0-2.688.251c-7.232,1.174-19.626,6.273-20.979,11.39a3.306,3.306,0,0,0-.09,1.255s0,.063,0,.1c.9,6.273-5.377,5.377-5.377,5.377s-2.24,16.579-5.377,21.06c-2.267,3.226-3.818,10.422-4.015,15.853h0a17.574,17.574,0,0,0,.394,5.045v.125c.358,1.2-.5,4.481-1.963,8.684-1.586,4.615-3.9,10.351-6.121,15.763-3.352,8.173-6.506,15.593-6.7,17.224-.081.726-.314,2.025-.636,3.7-1.308,6.829-4.212,19.832-5.646,25.092-1.066,3.925-2.617,9.3-3.683,12.994a1.258,1.258,0,0,1-.09.314l40.174-.394v.753h.125Z" transform="translate(-111.006 -208.544)" fill="#696969"/>
  <path id="Path_36" data-name="Path 36" d="M445.44,607.57s51.081,26.436,69.452,23.3Z" transform="translate(-117.369 -218.081)" opacity="0.1"/>
  <path id="Path_37" data-name="Path 37" d="M561.44,595.57s49.736,16.131,66.315,18.371S561.44,595.57,561.44,595.57Z" transform="translate(-129.416 -216.834)" opacity="0.1"/>
  <path id="Path_38" data-name="Path 38" d="M611.867,535.586c-25.988,4.786-74.918,3.755-96.067,3.029,7.752-27.781,45.551-18.335,45.551-18.335C608.139,510.942,611.724,530.316,611.867,535.586Z" transform="translate(-124.676 -208.755)" opacity="0.1"/>
  <path id="Path_39" data-name="Path 39" d="M611.867,533.586c-25.988,4.785-74.918,3.755-96.067,3.029,7.752-27.781,45.551-18.335,45.551-18.335C608.139,508.942,611.724,528.316,611.867,533.586Z" transform="translate(-124.676 -208.547)" fill="#696969"/>
  <path id="Path_40" data-name="Path 40" d="M776.94,672.228s30.612-4.7,31.213,8.737S792.542,703.8,792.542,703.8Z" transform="translate(-151.795 -224.712)" fill="#fbbebe"/>
  <path id="Path_41" data-name="Path 41" d="M597.251,495.073a42.127,42.127,0,0,1-4.033,1.559c-9.661,3.334-19.4,6.694-29.573,7.913s-20.844.143-29.716-4.929a25.784,25.784,0,0,1-2.688-1.747c-.986-19.715-3.361-38.983-3.361-38.983s77.965-36.742,69-7.617C593.317,463.035,594.527,479.56,597.251,495.073Z" transform="translate(-125.93 -200.683)" opacity="0.1"/>
  <path id="Path_42" data-name="Path 42" d="M547.889,363.491a8.486,8.486,0,0,1-7.456-1.568l1.864,2.59a7.59,7.59,0,0,1-6.076-2.016,30.544,30.544,0,0,0,.287,6.945,13.011,13.011,0,0,1-8.567-2.688,3.961,3.961,0,0,0,2.366,3.862,12.851,12.851,0,0,0-13.98,9.6l4.678.43a16.552,16.552,0,0,0-9.356,5.708c-1.434,1.792-2.527,4.086-1.9,6.273s3.656,3.585,5.305,2.025a25.038,25.038,0,0,0-5.467,20.423,12.966,12.966,0,0,1,.412,4.714c-.3,1.479-1.228,2.76-1.694,4.2-.9,2.617-.045,5.458.753,8.065l4.2,13.819c1.523,4.992,3.038,9.992,5.027,14.822a73.564,73.564,0,0,1,3.585,9.419c1.129,4.337,1.174,9.087,3.585,12.878a17.861,17.861,0,0,0,6.434,5.673c8.863,5.072,19.572,6.148,29.716,4.929s19.877-4.579,29.528-7.913a27.782,27.782,0,0,0,6.13-2.688c6.676-4.373,8.164-13.317,9.409-21.194,1.389-8.782,3.244-17.547,6.533-25.809,1.954-4.92,4.481-9.911,4.051-15.181-.547-7-6.085-12.672-7.456-19.554a17.027,17.027,0,0,1,.063-6.963,15.829,15.829,0,0,0,.708-4.212c-.152-2.886-2.518-5.108-4.741-6.963q-7.232-6.04-14.93-11.417c-.26-1.792,2.178-2.563,3.28-3.979,1.559-2-.054-5.171-2.42-6.1s-5.018-.323-7.483.3a5.906,5.906,0,0,0-10.35-4.579,9.141,9.141,0,0,0-7.546-5.449c-5.941-.466-6.058,4.078-9.858,6.578s-6.936-.8-9.858-3.2A8.316,8.316,0,0,0,547.889,363.491Z" transform="translate(-123.858 -191.524)" fill="#867d0c"/>
  <path id="Path_43" data-name="Path 43" d="M792.162,692.481s-.8,1.9-2.267,4.651a61.827,61.827,0,0,1-8.065,11.8l-.242.26h-1.452l-51.744.475h-1.237L727,709.49l-10.037-11.91-3.782-4.49-.152-.188-.323-.376-.179-.215-.233-.278L704.94,683.3l2.689-11.2,4.579-18.873.117-.457.9-3.585.636-2.688,2.133-8.764L723.3,607.58,736.3,614.3,750,638.5l7.357,12.994h4.033c.762,0,2.509,1.47,4.266,3.163.627.6,1.255,1.237,1.792,1.792,1.6,1.649,2.859,3.065,2.859,3.065s6.533.143,8.289,5.287a6.275,6.275,0,0,1,.224.762,36.1,36.1,0,0,0,2.267,5.879c1.156,2.518,2.608,5.377,4.077,8.236,2.733,5.242,5.511,10.234,6.533,12.044l.125.224Z" transform="translate(-144.318 -218.082)" fill="#696969"/>
  <path id="Path_44" data-name="Path 44" d="M686.524,655.961l-.09,1.282v.09l-.152,2.061-1.192,16.588-1.443,19.984-.412,5.628-.9,12.044v.152l-95.888.9-157.355,1.7v.753h-.125v-1l.4-12.869.771-25.146.663-21.319.063-2.124a9.436,9.436,0,0,1,10.234-9.114c4.23.358,9.723.8,16.292,1.264l2.688.2c37.934,2.635,108.04,6.04,178.782,1.792,1.488-.081,2.984-.17,4.481-.278,10.969-.69,21.929-1.577,32.781-2.688a9.437,9.437,0,0,1,10.4,10.064Z" transform="translate(-115.659 -222.023)" opacity="0.1"/>
  <path id="Path_45" data-name="Path 45" d="M429.08,717.56v-.753L586.462,715.1l95.888-.9h.269v-.152l.9-12.044.385-5.377,1.47-20.262,1.156-16.041v-.394a9.514,9.514,0,0,0-.1-2.214.267.267,0,0,0,0-.09,9.312,9.312,0,0,0-1.792-4.158,9.445,9.445,0,0,0-8.442-3.585c-10.852,1.111-21.812,2-32.781,2.688-1.5.108-2.993.2-4.481.278-70.742,4.2-140.848.8-178.782-1.792l-2.688-.2c-6.569-.466-12.062-.9-16.292-1.263A9.445,9.445,0,0,0,431.1,657.24a9.858,9.858,0,0,0-.161,1.47l-.609,19.859-.833,25.155-.394,12.869v1Z" transform="translate(-115.67 -222.442)" fill="#3f3d56"/>
  <path id="Path_46" data-name="Path 46" d="M686.807,663.443l-1.1,13.738-1.64,20.477-.412,5.126-.9,11.48-.054.573v.152h0l-.134,1.326.1-1.326h-.26l-95.888.9-157.409,1.7v-.251l.439-12.869.9-25.146.574-16.713a5.7,5.7,0,0,1,2.742-4.7,5.6,5.6,0,0,1,3.387-.807c1.882.152,4.194.332,6.891.529,4.382.323,9.786.7,16.077,1.093,11.65.735,26.266,1.523,43.015,2.169,46.6,1.792,109.51,2.393,169.265-2.841,2.688-.233,5.466-.493,8.182-.753a5.61,5.61,0,0,1,3.119.591,4.625,4.625,0,0,1,.771.484,5.5,5.5,0,0,1,1.792,2.2,3.2,3.2,0,0,1,.224.547A5.629,5.629,0,0,1,686.807,663.443Z" transform="translate(-115.673 -223.222)" opacity="0.1"/>
  <path id="Path_47" data-name="Path 47" d="M372.541,677.87v2.859a5.493,5.493,0,0,1-3.137,4.965l-35.936.69a5.484,5.484,0,0,1-3.2-4.992V678.7Z" transform="translate(-105.409 -225.381)" opacity="0.1"/>
  <path id="Path_48" data-name="Path 48" d="M293.174,514.67l-46.824.9V507.8l46.824-.9Z" transform="translate(-25.593 -52.673)" fill="#3f3d56"/>
  <path id="Path_49" data-name="Path 49" d="M293.174,514.67l-46.824.9V507.8l46.824-.9Z" transform="translate(-25.593 -52.673)" opacity="0.1"/>
  <path id="Path_50" data-name="Path 50" d="M295.174,514.67l-46.824.9V507.8l46.824-.9Z" transform="translate(-25.801 -52.673)" fill="#3f3d56"/>
  <g id="Group_2" data-name="Group 2" transform="translate(384.425 165.138)" opacity="0.1">
    <path id="Path_51" data-name="Path 51" d="M552.722,361.109a8.738,8.738,0,0,1-1.694-3.889,8.5,8.5,0,0,0,.376,4.122A8.064,8.064,0,0,0,552.722,361.109Z" transform="translate(-512.749 -357.22)"/>
    <path id="Path_52" data-name="Path 52" d="M540.192,367.816a31.465,31.465,0,0,1-.331-3.316c0,1.1,0,2.214,0,3.325Z" transform="translate(-511.599 -357.976)"/>
    <path id="Path_53" data-name="Path 53" d="M621.723,400.7a16.416,16.416,0,0,1,.323-2.375,16.13,16.13,0,0,0,.717-4.2,5.513,5.513,0,0,0-.143-.95c-.152.824-.394,1.649-.573,2.464a17.153,17.153,0,0,0-.323,5.063Z" transform="translate(-520.095 -360.953)"/>
    <path id="Path_54" data-name="Path 54" d="M600.928,370.143l.977.708a17.659,17.659,0,0,0,2.3-1.989,3.289,3.289,0,0,0,.341-3.262,2.691,2.691,0,0,1-.341.574C603.105,367.589,600.668,368.369,600.928,370.143Z" transform="translate(-517.939 -358.09)"/>
    <path id="Path_55" data-name="Path 55" d="M518.67,380.29a11.034,11.034,0,0,0-.78,2.043,16.276,16.276,0,0,1,4.481-1.694Z" transform="translate(-509.318 -359.616)"/>
    <path id="Path_56" data-name="Path 56" d="M532.354,369.282a13.279,13.279,0,0,1-1.685-1.1,3.8,3.8,0,0,0,.081,1.057,10.625,10.625,0,0,1,1.6.045Z" transform="translate(-510.644 -358.358)"/>
    <path id="Path_57" data-name="Path 57" d="M617.651,428.33c-.367,4.346-2.393,8.531-4.033,12.654-3.289,8.262-5.144,17.027-6.533,25.818-1.246,7.877-2.688,16.821-9.41,21.185a26.882,26.882,0,0,1-6.121,2.688c-9.661,3.343-19.4,6.694-29.573,7.913s-20.845.152-29.716-4.92A17.922,17.922,0,0,1,525.831,488c-2.393-3.791-2.438-8.54-3.585-12.878a73.671,73.671,0,0,0-3.585-9.427c-1.98-4.821-3.5-9.858-5.018-14.813q-2.106-6.909-4.2-13.828a25.822,25.822,0,0,1-1.022-4.257c-.35,2.294.332,4.7,1.022,6.945q2.1,6.927,4.2,13.828c1.514,4.992,3.038,9.992,5.018,14.813a73.665,73.665,0,0,1,3.585,9.427c1.129,4.337,1.174,9.087,3.585,12.878a17.923,17.923,0,0,0,6.434,5.673c8.872,5.072,19.572,6.139,29.716,4.92s19.877-4.57,29.573-7.913a26.884,26.884,0,0,0,6.121-2.688c6.676-4.364,8.164-13.308,9.409-21.185,1.389-8.791,3.244-17.556,6.533-25.818,1.954-4.911,4.481-9.9,4.051-15.181C617.669,428.438,617.651,428.384,617.651,428.33Z" transform="translate(-508.324 -364.605)"/>
    <path id="Path_58" data-name="Path 58" d="M510.538,423.559v-.1a12.546,12.546,0,0,0-.412-4.7,23.82,23.82,0,0,1-.35-2.975,24.509,24.509,0,0,0,.35,5.664C510.269,422.143,510.43,422.851,510.538,423.559Z" transform="translate(-508.471 -363.301)"/>
    <path id="Path_59" data-name="Path 59" d="M513.316,399.386a24.862,24.862,0,0,1,2.339-3.289c-1.64,1.568-4.669.17-5.305-2.007a5.224,5.224,0,0,0,0,2.688A3.934,3.934,0,0,0,513.316,399.386Z" transform="translate(-508.516 -361.049)"/>
  </g>
  <path id="Path_60" data-name="Path 60" d="M763.294,656.57s2.841,10.306,0,19.267S763.294,656.57,763.294,656.57Z" transform="translate(-150.247 -223.169)" opacity="0.1"/>
  <path id="Path_61" data-name="Path 61" d="M776.662,668.3s1.192,13.084-1.5,15.4S776.662,668.3,776.662,668.3Z" transform="translate(-151.517 -224.387)" opacity="0.1"/>
  <line id="Line_5" data-name="Line 5" y1="0.896" x2="91.058" transform="translate(178.315 306.327)" fill="none" stroke="#696969" stroke-miterlimit="10" stroke-width="2"/>
  <line id="Line_6" data-name="Line 6" y1="0.887" x2="91.058" transform="translate(178.315 317.511)" fill="none" stroke="#696969" stroke-miterlimit="10" stroke-width="2"/>
  <line id="Line_7" data-name="Line 7" y1="0.896" x2="91.058" transform="translate(178.315 328.686)" fill="none" stroke="#696969" stroke-miterlimit="10" stroke-width="2"/>
</svg>
